<svg width="24" height="24" viewBox="0 0 24 24" fill="none" xmlns="http://www.w3.org/2000/svg">
<path fill-rule="evenodd" clip-rule="evenodd" d="M11.2227 5.77821C8.21577 5.77821 5.77821 8.21577 5.77821 11.2227C5.77821 14.2295 8.21577 16.6671 11.2227 16.6671C14.2295 16.6671 16.6671 14.2295 16.6671 11.2227C16.6671 8.21577 14.2295 5.77821 11.2227 5.77821ZM4.22266 11.2227C4.22266 7.35666 7.35666 4.22266 11.2227 4.22266C15.0886 4.22266 18.2227 7.35666 18.2227 11.2227C18.2227 15.0886 15.0886 18.2227 11.2227 18.2227C7.35666 18.2227 4.22266 15.0886 4.22266 11.2227Z" fill="#7A7C8E"/>
<path fill-rule="evenodd" clip-rule="evenodd" d="M16.5834 16.5834C16.8871 16.2796 17.3796 16.2796 17.6833 16.5834L19.55 18.45C19.8538 18.7538 19.8538 19.2462 19.55 19.55C19.2463 19.8537 18.7538 19.8537 18.4501 19.55L16.5834 17.6833C16.2797 17.3796 16.2797 16.8871 16.5834 16.5834Z" fill="#7A7C8E"/>
</svg>
