<svg width="24" height="24" viewBox="0 0 24 24" fill="none" xmlns="http://www.w3.org/2000/svg">
<path d="M9.86094 14.5396C13.2921 14.5396 16.2219 15.0836 16.2219 17.2604C16.2219 19.4362 13.3109 20 9.86094 20C6.42976 20 3.5 19.456 3.5 17.2802C3.5 15.1034 6.41095 14.5396 9.86094 14.5396ZM15.347 13.2289C16.6587 13.2046 18.069 13.3847 18.5901 13.5126C19.6942 13.7296 20.4203 14.1727 20.7212 14.8166C20.9755 15.3453 20.9755 15.9586 20.7212 16.4864C20.261 17.4851 18.7773 17.8058 18.2006 17.8886C18.0815 17.9066 17.9857 17.8031 17.9983 17.6833C18.2929 14.9157 15.9496 13.6035 15.3434 13.3018C15.3174 13.2883 15.3121 13.2676 15.3147 13.255C15.3165 13.246 15.3273 13.2316 15.347 13.2289ZM9.86094 4C12.197 4 14.0702 5.88227 14.0702 8.23285C14.0702 10.5825 12.197 12.4666 9.86094 12.4666C7.52483 12.4666 5.65165 10.5825 5.65165 8.23285C5.65165 5.88227 7.52483 4 9.86094 4ZM15.5753 4.7059C17.8317 4.7059 19.6037 6.84123 19.0002 9.21974C18.5928 10.821 17.1181 11.8846 15.475 11.8414C15.3103 11.8369 15.1482 11.8216 14.9915 11.7946C14.8778 11.7748 14.8205 11.646 14.885 11.5505C15.5117 10.6229 15.869 9.50703 15.869 8.30922C15.869 7.05918 15.4786 5.8938 14.8008 4.93825C14.7793 4.90853 14.7632 4.8626 14.7847 4.82838C14.8026 4.80046 14.8357 4.78605 14.867 4.77884C15.0954 4.73201 15.33 4.7059 15.5753 4.7059Z" fill="#9FA8C7"/>
</svg>
