<svg width="64" height="64" viewBox="0 0 64 64" fill="none" xmlns="http://www.w3.org/2000/svg">
<path d="M0 12C0 5.37258 5.37258 0 12 0H52C58.6274 0 64 5.37258 64 12V52C64 58.6274 58.6274 64 52 64H12C5.37258 64 0 58.6274 0 52V12Z" fill="#E1F1E0"/>
<path d="M38 28.5333L26 21.6133" stroke="black" stroke-width="2" stroke-linecap="round" stroke-linejoin="round"/>
<path d="M44 37.3333V26.6667C43.9995 26.199 43.8761 25.7397 43.6421 25.3349C43.408 24.93 43.0717 24.5938 42.6667 24.36L33.3333 19.0267C32.9279 18.7926 32.4681 18.6694 32 18.6694C31.5319 18.6694 31.0721 18.7926 30.6667 19.0267L21.3333 24.36C20.9284 24.5938 20.592 24.93 20.3579 25.3349C20.1239 25.7397 20.0005 26.199 20 26.6667V37.3333C20.0005 37.801 20.1239 38.2603 20.3579 38.6651C20.592 39.07 20.9284 39.4062 21.3333 39.64L30.6667 44.9733C31.0721 45.2074 31.5319 45.3306 32 45.3306C32.4681 45.3306 32.9279 45.2074 33.3333 44.9733L42.6667 39.64C43.0717 39.4062 43.408 39.07 43.6421 38.6651C43.8761 38.2603 43.9995 37.801 44 37.3333Z" stroke="black" stroke-width="2" stroke-linecap="round" stroke-linejoin="round"/>
<path d="M20.36 25.28L32 32.0133L43.64 25.28" stroke="black" stroke-width="2" stroke-linecap="round" stroke-linejoin="round"/>
<path d="M32 45.44V32" stroke="black" stroke-width="2" stroke-linecap="round" stroke-linejoin="round"/>
</svg>
