<svg width="64" height="64" viewBox="0 0 64 64" fill="none" xmlns="http://www.w3.org/2000/svg">
<path d="M0 12C0 5.37258 5.37258 0 12 0H52C58.6274 0 64 5.37258 64 12V52C64 58.6274 58.6274 64 52 64H12C5.37258 64 0 58.6274 0 52V12Z" fill="#DCECF1"/>
<path d="M38.1275 34.7949C38.4874 34.0545 39.5378 34.0419 39.9154 34.7734L40.9933 36.8615C41.1418 37.1492 41.4203 37.3471 41.7408 37.3928L43.8892 37.6991C44.7281 37.8187 45.0473 38.862 44.419 39.4306L42.9733 40.7387C42.6847 40.9999 42.5738 41.4049 42.6892 41.7766L43.2585 43.6109C43.5261 44.4732 42.6042 45.2206 41.8159 44.7804L39.4875 43.4802C39.1845 43.311 38.8155 43.311 38.5125 43.4802L36.1841 44.7804C35.3958 45.2206 34.4739 44.4732 34.7415 43.6109L35.3108 41.7766C35.4262 41.4049 35.3153 40.9999 35.0267 40.7387L33.5887 39.4375C32.9591 38.8678 33.2811 37.8222 34.1221 37.7055L36.3714 37.3934C36.7018 37.3475 36.9875 37.14 37.1333 36.84L38.1275 34.7949Z" fill="black"/>
<path d="M41 21H38V20C37.9984 19.4701 37.7872 18.9623 37.4125 18.5875C37.0377 18.2128 36.5299 18.0016 36 18H28C27.4701 18.0016 26.9623 18.2128 26.5875 18.5875C26.2128 18.9623 26.0016 19.4701 26 20V21H23C22.4701 21.0016 21.9623 21.2128 21.5875 21.5875C21.2128 21.9623 21.0016 22.4701 21 23V44C21.0016 44.5299 21.2128 45.0377 21.5875 45.4125C21.9623 45.7872 22.4701 45.9984 23 46H30V44H23V23H26V26H38V23H41V30H43V23C42.9984 22.4701 42.7872 21.9623 42.4125 21.5875C42.0377 21.2128 41.5299 21.0016 41 21ZM36 24H28V20H36V24Z" fill="black"/>
</svg>
