<svg width="24" height="24" viewBox="0 0 24 24" fill="none" xmlns="http://www.w3.org/2000/svg">
<path d="M12.7171 2.0003C13.4734 2.0003 14.1581 2.4203 14.5362 3.0403C14.7201 3.3403 14.8428 3.7103 14.8121 4.1003C14.7917 4.4003 14.8837 4.7003 15.0472 4.9803C15.5684 5.8303 16.7232 6.1503 17.6225 5.6703C18.6342 5.0903 19.9117 5.4403 20.4942 6.4303L21.1789 7.6103C21.7716 8.6003 21.4446 9.8703 20.4227 10.4403C19.554 10.9503 19.2474 12.0803 19.7686 12.9403C19.9321 13.2103 20.1161 13.4403 20.4022 13.5803C20.7599 13.7703 21.0358 14.0703 21.23 14.3703C21.6081 14.9903 21.5775 15.7503 21.2096 16.4203L20.4942 17.6203C20.1161 18.2603 19.4109 18.6603 18.6853 18.6603C18.3277 18.6603 17.9291 18.5603 17.6021 18.3603C17.3364 18.1903 17.0298 18.1303 16.7027 18.1303C15.691 18.1303 14.8428 18.9603 14.8121 19.9503C14.8121 21.1003 13.8719 22.0003 12.6967 22.0003H11.3068C10.1213 22.0003 9.18113 21.1003 9.18113 19.9503C9.16069 18.9603 8.31247 18.1303 7.30073 18.1303C6.96348 18.1303 6.6569 18.1903 6.40141 18.3603C6.07438 18.5603 5.6656 18.6603 5.31813 18.6603C4.58232 18.6603 3.87717 18.2603 3.49905 17.6203L2.7939 16.4203C2.41577 15.7703 2.39533 14.9903 2.77346 14.3703C2.93697 14.0703 3.24356 13.7703 3.59102 13.5803C3.87717 13.4403 4.06112 13.2103 4.23486 12.9403C4.74584 12.0803 4.43925 10.9503 3.57059 10.4403C2.55885 9.8703 2.23182 8.6003 2.81434 7.6103L3.49905 6.4303C4.09178 5.4403 5.35901 5.0903 6.38097 5.6703C7.27007 6.1503 8.42488 5.8303 8.94608 4.9803C9.10959 4.7003 9.20157 4.4003 9.18113 4.1003C9.16069 3.7103 9.27311 3.3403 9.46728 3.0403C9.8454 2.4203 10.5301 2.0203 11.2761 2.0003H12.7171ZM12.012 9.1803C10.4075 9.1803 9.10959 10.4403 9.10959 12.0103C9.10959 13.5803 10.4075 14.8303 12.012 14.8303C13.6164 14.8303 14.8837 13.5803 14.8837 12.0103C14.8837 10.4403 13.6164 9.1803 12.012 9.1803Z" fill="#9FA8C7"/>
</svg>
