<svg width="24" height="24" viewBox="0 0 24 24" fill="none" xmlns="http://www.w3.org/2000/svg">
<path d="M7.91994 13.4697C9.32994 13.4697 10.4599 14.6107 10.4599 16.0307V19.4397C10.4599 20.8497 9.32994 21.9997 7.91994 21.9997H4.53994C3.13994 21.9997 1.99994 20.8497 1.99994 19.4397V16.0307C1.99994 14.6107 3.13994 13.4697 4.53994 13.4697H7.91994ZM19.46 13.4697C20.86 13.4697 22 14.6107 22 16.0307V19.4397C22 20.8497 20.86 21.9997 19.46 21.9997H16.08C14.67 21.9997 13.54 20.8497 13.54 19.4397V16.0307C13.54 14.6107 14.67 13.4697 16.08 13.4697H19.46ZM19.46 1.99997C20.86 1.99997 22 3.14997 22 4.56097V7.96997C22 9.38997 20.86 10.53 19.46 10.53H16.08C14.67 10.53 13.54 9.38997 13.54 7.96997V4.56097C13.54 3.14997 14.67 1.99997 16.08 1.99997H19.46Z" fill="white"/>
<path d="M10.46 4.561C10.46 3.15 9.33 2 7.92 2H4.54C3.14 2 2 3.15 2 4.561V7.97C2 9.39 3.14 10.53 4.54 10.53H7.92C9.33 10.53 10.46 9.39 10.46 7.97V4.561Z" fill="white"/>
</svg>
