<svg width="64" height="64" viewBox="0 0 64 64" fill="none" xmlns="http://www.w3.org/2000/svg">
<path d="M0 12C0 5.37258 5.37258 0 12 0H52C58.6274 0 64 5.37258 64 12V52C64 58.6274 58.6274 64 52 64H12C5.37258 64 0 58.6274 0 52V12Z" fill="#F8BA39"/>
<path d="M45.3333 30.7733V32C45.3317 34.8752 44.4006 37.6729 42.6791 39.9758C40.9575 42.2786 38.5377 43.9633 35.7804 44.7785C33.0232 45.5938 30.0763 45.4959 27.3793 44.4994C24.6822 43.503 22.3795 41.6615 20.8146 39.2494C19.2496 36.8374 18.5063 33.9841 18.6955 31.1151C18.8847 28.2461 19.9962 25.5151 21.8643 23.3294C23.7324 21.1438 26.257 19.6205 29.0615 18.9869C31.8661 18.3532 34.8003 18.6431 37.4266 19.8133" stroke="white" stroke-width="2" stroke-linecap="round" stroke-linejoin="round"/>
<path d="M45.3333 21.3333L32 34.68L28 30.68" stroke="white" stroke-width="2" stroke-linecap="round" stroke-linejoin="round"/>
</svg>
