<svg width="64" height="64" viewBox="0 0 64 64" fill="none" xmlns="http://www.w3.org/2000/svg">
<path d="M0 12C0 5.37258 5.37258 0 12 0H52C58.6274 0 64 5.37258 64 12V52C64 58.6274 58.6274 64 52 64H12C5.37258 64 0 58.6274 0 52V12Z" fill="#F4DADA"/>
<path d="M25.6666 25.3333C25.6666 25.0681 25.772 24.8138 25.9595 24.6262C26.1471 24.4387 26.4014 24.3333 26.6666 24.3333H37.3333C37.5985 24.3333 37.8529 24.4387 38.0404 24.6262C38.2279 24.8138 38.3333 25.0681 38.3333 25.3333C38.3333 25.5986 38.2279 25.8529 38.0404 26.0405C37.8529 26.228 37.5985 26.3333 37.3333 26.3333H26.6666C26.4014 26.3333 26.1471 26.228 25.9595 26.0405C25.772 25.8529 25.6666 25.5986 25.6666 25.3333ZM26.6666 29C26.4014 29 26.1471 29.1054 25.9595 29.2929C25.772 29.4804 25.6666 29.7348 25.6666 30C25.6666 30.2652 25.772 30.5196 25.9595 30.7071C26.1471 30.8947 26.4014 31 26.6666 31H33.3333C33.5985 31 33.8529 30.8947 34.0404 30.7071C34.2279 30.5196 34.3333 30.2652 34.3333 30C34.3333 29.7348 34.2279 29.4804 34.0404 29.2929C33.8529 29.1054 33.5985 29 33.3333 29H26.6666Z" fill="black"/>
<path fill-rule="evenodd" clip-rule="evenodd" d="M29.26 17.6667C27.4374 17.6667 25.9667 17.6667 24.8107 17.8227C23.6107 17.9827 22.6 18.3293 21.7974 19.1307C20.9947 19.9333 20.6507 20.944 20.4894 22.144C20.3334 23.3 20.3334 24.7707 20.3334 26.5933V37.4067C20.3334 39.2293 20.3334 40.7 20.4894 41.856C20.6494 43.056 20.996 44.0667 21.7974 44.8693C22.6 45.672 23.6107 46.016 24.8107 46.1787C25.9667 46.3333 27.4374 46.3333 29.26 46.3333H34.74C36.5627 46.3333 38.0334 46.3333 39.1894 46.1787C40.3894 46.016 41.4 45.672 42.2027 44.8693C43.0054 44.0667 43.3494 43.056 43.512 41.856C43.6667 40.7 43.6667 39.2293 43.6667 37.4067V26.5933C43.6667 24.7707 43.6667 23.3 43.512 22.144C43.3494 20.944 43.0054 19.9333 42.2027 19.1307C41.4 18.328 40.3894 17.984 39.1894 17.8227C38.0334 17.6667 36.5627 17.6667 34.74 17.6667H29.26ZM23.2134 20.5453C23.5827 20.176 24.1 19.936 25.08 19.804C26.0854 19.6693 27.4214 19.6667 29.3347 19.6667H34.668C36.5814 19.6667 37.916 19.6693 38.924 19.804C39.9027 19.936 40.42 20.1773 40.7894 20.5453C41.1587 20.9147 41.3987 21.432 41.5307 22.412C41.6654 23.4173 41.668 24.7533 41.668 26.6667V36.3333H26.376C25.2854 36.3333 24.5414 36.3333 23.9027 36.504C23.3411 36.6544 22.81 36.9017 22.3334 37.2347V26.6667C22.3334 24.7533 22.336 23.4173 22.4707 22.4107C22.6027 21.432 22.8454 20.9147 23.2134 20.5453ZM22.3694 40.332C22.3894 40.804 22.4214 41.2187 22.4707 41.5893C22.6027 42.568 22.844 43.0853 23.212 43.4547C23.5814 43.824 24.0987 44.064 25.0787 44.196C26.084 44.3307 27.42 44.3333 29.3334 44.3333H34.6667C36.58 44.3333 37.9147 44.3307 38.9227 44.196C39.9014 44.064 40.4187 43.8227 40.788 43.4547C41.1574 43.0853 41.3974 42.568 41.5294 41.588C41.64 40.768 41.6614 39.728 41.6654 38.3333H26.5307C25.2267 38.3333 24.7707 38.3413 24.42 38.436C23.9501 38.562 23.5179 38.8005 23.1606 39.1308C22.8034 39.4611 22.5318 39.8734 22.3694 40.332Z" fill="black"/>
</svg>
