<svg width="24" height="24" viewBox="0 0 24 24" fill="none" xmlns="http://www.w3.org/2000/svg">
<path d="M6.81 2.853C6.075 2.952 5.687 3.132 5.41 3.409C5.134 3.686 4.952 4.074 4.853 4.808C4.752 5.563 4.75 6.565 4.75 8V15.926C5.10747 15.6763 5.50577 15.4908 5.927 15.378C6.406 15.25 6.964 15.25 7.782 15.25H19.251V8C19.251 6.565 19.249 5.563 19.148 4.809C19.049 4.074 18.869 3.686 18.592 3.409C18.315 3.133 17.927 2.952 17.193 2.853C16.437 2.752 15.436 2.75 14.001 2.75H10.001C8.566 2.75 7.564 2.752 6.81 2.853Z" fill="#9FA8C7"/>
<path d="M4.853 19.192C4.816 18.914 4.792 18.603 4.777 18.249C4.89883 17.905 5.10249 17.5958 5.37043 17.3481C5.63837 17.1004 5.96255 16.9215 6.315 16.827C6.578 16.756 6.92 16.75 7.898 16.75H19.249C19.246 17.796 19.23 18.576 19.147 19.191C19.048 19.926 18.868 20.314 18.591 20.591C18.314 20.867 17.926 21.048 17.192 21.147C16.436 21.248 15.435 21.25 14 21.25H10C8.565 21.25 7.563 21.248 6.809 21.147C6.074 21.048 5.686 20.868 5.409 20.591C5.133 20.314 4.952 19.926 4.853 19.192Z" fill="#9FA8C7"/>
<path d="M7.25 7C7.25 6.80109 7.32902 6.61032 7.46967 6.46967C7.61032 6.32902 7.80109 6.25 8 6.25H16C16.1989 6.25 16.3897 6.32902 16.5303 6.46967C16.671 6.61032 16.75 6.80109 16.75 7C16.75 7.19891 16.671 7.38968 16.5303 7.53033C16.3897 7.67098 16.1989 7.75 16 7.75H8C7.80109 7.75 7.61032 7.67098 7.46967 7.53033C7.32902 7.38968 7.25 7.19891 7.25 7ZM8 9.75C7.80109 9.75 7.61032 9.82902 7.46967 9.96967C7.32902 10.1103 7.25 10.3011 7.25 10.5C7.25 10.6989 7.32902 10.8897 7.46967 11.0303C7.61032 11.171 7.80109 11.25 8 11.25H13C13.1989 11.25 13.3897 11.171 13.5303 11.0303C13.671 10.8897 13.75 10.6989 13.75 10.5C13.75 10.3011 13.671 10.1103 13.5303 9.96967C13.3897 9.82902 13.1989 9.75 13 9.75H8Z" fill="black"/>
</svg>
